<mxfile host="65bd71144e">
    <diagram id="6ReXXDI4x01Q825lkHaf" name="Page-1">
        <mxGraphModel dx="1118" dy="828" grid="1" gridSize="10" guides="1" tooltips="1" connect="1" arrows="1" fold="1" page="1" pageScale="1" pageWidth="850" pageHeight="1100" math="0" shadow="0">
            <root>
                <mxCell id="0"/>
                <mxCell id="1" parent="0"/>
                <mxCell id="128" value="" style="rounded=0;whiteSpace=wrap;html=1;" vertex="1" parent="1">
                    <mxGeometry x="10" y="10" width="830" height="220" as="geometry"/>
                </mxCell>
                <mxCell id="129" value="&lt;font style=&quot;font-size: 72px&quot;&gt;Fork the Food&lt;/font&gt;" style="text;strokeColor=none;fillColor=none;html=1;fontSize=24;fontStyle=1;verticalAlign=middle;align=center;" vertex="1" parent="1">
                    <mxGeometry x="250" y="50" width="350" height="140" as="geometry"/>
                </mxCell>
                <mxCell id="130" value="" style="rounded=0;whiteSpace=wrap;html=1;fontSize=72;" vertex="1" parent="1">
                    <mxGeometry x="10" y="250" width="420" height="490" as="geometry"/>
                </mxCell>
                <mxCell id="168" value="&lt;h2&gt;&lt;span style=&quot;font-size: 48px&quot;&gt;Input ingredients:&lt;/span&gt;&lt;/h2&gt;" style="text;html=1;strokeColor=none;fillColor=none;align=center;verticalAlign=middle;whiteSpace=wrap;rounded=0;fontSize=72;" vertex="1" parent="1">
                    <mxGeometry x="180" y="310" width="60" height="30" as="geometry"/>
                </mxCell>
                <mxCell id="170" value="Search..." style="html=1;shadow=0;dashed=0;shape=mxgraph.bootstrap.rrect;rSize=5;strokeColor=#CED4DA;strokeWidth=1;fillColor=#E9ECEF;fontColor=#505050;whiteSpace=wrap;align=left;verticalAlign=middle;spacingLeft=10;fontSize=14;" vertex="1" parent="1">
                    <mxGeometry x="25" y="450" width="395" height="40" as="geometry"/>
                </mxCell>
                <mxCell id="178" value="" style="rounded=1;whiteSpace=wrap;html=1;fontSize=48;" vertex="1" parent="1">
                    <mxGeometry x="450" y="250" width="380" height="60" as="geometry"/>
                </mxCell>
                <mxCell id="179" value="" style="rounded=1;whiteSpace=wrap;html=1;fontSize=48;" vertex="1" parent="1">
                    <mxGeometry x="450" y="330" width="380" height="60" as="geometry"/>
                </mxCell>
                <mxCell id="180" value="" style="rounded=1;whiteSpace=wrap;html=1;fontSize=48;" vertex="1" parent="1">
                    <mxGeometry x="450" y="410" width="380" height="60" as="geometry"/>
                </mxCell>
                <mxCell id="181" value="" style="rounded=1;whiteSpace=wrap;html=1;fontSize=48;" vertex="1" parent="1">
                    <mxGeometry x="450" y="490" width="380" height="60" as="geometry"/>
                </mxCell>
                <mxCell id="182" value="" style="rounded=1;whiteSpace=wrap;html=1;fontSize=48;" vertex="1" parent="1">
                    <mxGeometry x="450" y="570" width="380" height="60" as="geometry"/>
                </mxCell>
                <mxCell id="183" value="" style="rounded=1;whiteSpace=wrap;html=1;fontSize=48;" vertex="1" parent="1">
                    <mxGeometry x="450" y="650" width="380" height="60" as="geometry"/>
                </mxCell>
                <mxCell id="184" value="" style="rounded=1;whiteSpace=wrap;html=1;fontSize=48;" vertex="1" parent="1">
                    <mxGeometry x="450" y="730" width="380" height="60" as="geometry"/>
                </mxCell>
                <mxCell id="185" value="" style="rounded=1;whiteSpace=wrap;html=1;fontSize=48;" vertex="1" parent="1">
                    <mxGeometry x="450" y="810" width="380" height="60" as="geometry"/>
                </mxCell>
                <mxCell id="186" value="Ingredient" style="text;strokeColor=none;fillColor=none;html=1;fontSize=24;fontStyle=1;verticalAlign=middle;align=center;" vertex="1" parent="1">
                    <mxGeometry x="590" y="260" width="100" height="40" as="geometry"/>
                </mxCell>
                <mxCell id="187" value="Ingredient" style="text;strokeColor=none;fillColor=none;html=1;fontSize=24;fontStyle=1;verticalAlign=middle;align=center;" vertex="1" parent="1">
                    <mxGeometry x="590" y="340" width="100" height="40" as="geometry"/>
                </mxCell>
                <mxCell id="188" value="Ingredient" style="text;strokeColor=none;fillColor=none;html=1;fontSize=24;fontStyle=1;verticalAlign=middle;align=center;" vertex="1" parent="1">
                    <mxGeometry x="590" y="420" width="100" height="40" as="geometry"/>
                </mxCell>
                <mxCell id="189" value="Ingredient" style="text;strokeColor=none;fillColor=none;html=1;fontSize=24;fontStyle=1;verticalAlign=middle;align=center;" vertex="1" parent="1">
                    <mxGeometry x="590" y="500" width="100" height="40" as="geometry"/>
                </mxCell>
                <mxCell id="190" value="Ingredient" style="text;strokeColor=none;fillColor=none;html=1;fontSize=24;fontStyle=1;verticalAlign=middle;align=center;" vertex="1" parent="1">
                    <mxGeometry x="590" y="580" width="100" height="40" as="geometry"/>
                </mxCell>
                <mxCell id="191" value="Ingredient" style="text;strokeColor=none;fillColor=none;html=1;fontSize=24;fontStyle=1;verticalAlign=middle;align=center;" vertex="1" parent="1">
                    <mxGeometry x="590" y="660" width="100" height="40" as="geometry"/>
                </mxCell>
                <mxCell id="192" value="Ingredient" style="text;strokeColor=none;fillColor=none;html=1;fontSize=24;fontStyle=1;verticalAlign=middle;align=center;" vertex="1" parent="1">
                    <mxGeometry x="590" y="740" width="100" height="40" as="geometry"/>
                </mxCell>
                <mxCell id="193" value="Ingredient" style="text;strokeColor=none;fillColor=none;html=1;fontSize=24;fontStyle=1;verticalAlign=middle;align=center;" vertex="1" parent="1">
                    <mxGeometry x="590" y="820" width="100" height="40" as="geometry"/>
                </mxCell>
                <mxCell id="204" value="Title" style="text;strokeColor=none;fillColor=none;html=1;fontSize=24;fontStyle=1;verticalAlign=middle;align=center;" vertex="1" parent="1">
                    <mxGeometry x="340" y="450" width="100" height="40" as="geometry"/>
                </mxCell>
                <mxCell id="206" value="" style="rounded=0;whiteSpace=wrap;html=1;fontSize=48;fillColor=#F0FFF1;" vertex="1" parent="1">
                    <mxGeometry x="25" y="500" width="395" height="30" as="geometry"/>
                </mxCell>
                <mxCell id="207" value="" style="rounded=0;whiteSpace=wrap;html=1;fontSize=48;fillColor=#F0FFF1;" vertex="1" parent="1">
                    <mxGeometry x="25" y="540" width="395" height="30" as="geometry"/>
                </mxCell>
                <mxCell id="208" value="" style="rounded=0;whiteSpace=wrap;html=1;fontSize=48;fillColor=#F0FFF1;" vertex="1" parent="1">
                    <mxGeometry x="25" y="580" width="395" height="30" as="geometry"/>
                </mxCell>
                <mxCell id="209" value="" style="rounded=0;whiteSpace=wrap;html=1;fontSize=48;fillColor=#F0FFF1;" vertex="1" parent="1">
                    <mxGeometry x="25" y="620" width="395" height="30" as="geometry"/>
                </mxCell>
                <mxCell id="210" value="" style="rounded=0;whiteSpace=wrap;html=1;fontSize=48;fillColor=#F0FFF1;" vertex="1" parent="1">
                    <mxGeometry x="25" y="660" width="395" height="30" as="geometry"/>
                </mxCell>
                <mxCell id="211" value="" style="rounded=0;whiteSpace=wrap;html=1;fontSize=48;fillColor=#F0FFF1;" vertex="1" parent="1">
                    <mxGeometry x="25" y="700" width="395" height="30" as="geometry"/>
                </mxCell>
                <mxCell id="213" value="&lt;h1&gt;Generate&lt;/h1&gt;" style="html=1;shadow=0;dashed=0;shape=mxgraph.bootstrap.rrect;rSize=5;strokeColor=none;strokeWidth=1;fillColor=#1CA5B8;fontColor=#FFFFFF;whiteSpace=wrap;align=center;verticalAlign=middle;spacingLeft=0;fontStyle=0;fontSize=16;spacing=5;" vertex="1" parent="1">
                    <mxGeometry x="10" y="750" width="420" height="120" as="geometry"/>
                </mxCell>
                <mxCell id="if9nncSJGzfauzh8v_aQ-213" value="&lt;h3&gt;&lt;br&gt;&lt;/h3&gt;" style="rounded=1;whiteSpace=wrap;html=1;fontSize=48;" vertex="1" parent="1">
                    <mxGeometry x="250" y="890" width="380" height="60" as="geometry"/>
                </mxCell>
                <mxCell id="if9nncSJGzfauzh8v_aQ-214" value="View favorited recipes" style="text;strokeColor=none;fillColor=none;html=1;fontSize=24;fontStyle=1;verticalAlign=middle;align=center;" vertex="1" parent="1">
                    <mxGeometry x="390" y="900" width="100" height="40" as="geometry"/>
                </mxCell>
                <mxCell id="if9nncSJGzfauzh8v_aQ-215" value="" style="endArrow=classic;html=1;fontSize=36;fillColor=#FF4D00;" edge="1" parent="1">
                    <mxGeometry width="50" height="50" relative="1" as="geometry">
                        <mxPoint x="20" y="1170" as="sourcePoint"/>
                        <mxPoint x="540" y="1060" as="targetPoint"/>
                    </mxGeometry>
                </mxCell>
                <mxCell id="if9nncSJGzfauzh8v_aQ-218" value="" style="endArrow=classic;startArrow=classic;html=1;fontSize=36;fillColor=#FF4D00;" edge="1" parent="1">
                    <mxGeometry width="50" height="50" relative="1" as="geometry">
                        <mxPoint x="540" y="1060" as="sourcePoint"/>
                        <mxPoint x="550" y="1530" as="targetPoint"/>
                    </mxGeometry>
                </mxCell>
                <mxCell id="if9nncSJGzfauzh8v_aQ-219" value="" style="endArrow=classic;html=1;fontSize=36;fillColor=#FF4D00;" edge="1" parent="1">
                    <mxGeometry width="50" height="50" relative="1" as="geometry">
                        <mxPoint x="640" y="1250" as="sourcePoint"/>
                        <mxPoint x="410" y="1430" as="targetPoint"/>
                    </mxGeometry>
                </mxCell>
                <mxCell id="if9nncSJGzfauzh8v_aQ-220" value="" style="endArrow=classic;html=1;fontSize=36;fillColor=#FF4D00;" edge="1" parent="1">
                    <mxGeometry width="50" height="50" relative="1" as="geometry">
                        <mxPoint x="550" y="1530" as="sourcePoint"/>
                        <mxPoint x="640" y="1250" as="targetPoint"/>
                    </mxGeometry>
                </mxCell>
                <mxCell id="if9nncSJGzfauzh8v_aQ-221" value="" style="endArrow=classic;startArrow=classic;html=1;fontSize=36;fillColor=#FF4D00;" edge="1" parent="1">
                    <mxGeometry width="50" height="50" relative="1" as="geometry">
                        <mxPoint x="810" y="1320" as="sourcePoint"/>
                        <mxPoint x="780" y="1150" as="targetPoint"/>
                    </mxGeometry>
                </mxCell>
                <mxCell id="if9nncSJGzfauzh8v_aQ-222" value="" style="endArrow=classic;startArrow=classic;html=1;fontSize=36;fillColor=#FF4D00;" edge="1" parent="1">
                    <mxGeometry width="50" height="50" relative="1" as="geometry">
                        <mxPoint x="410" y="1430" as="sourcePoint"/>
                        <mxPoint x="810" y="1320" as="targetPoint"/>
                    </mxGeometry>
                </mxCell>
                <mxCell id="if9nncSJGzfauzh8v_aQ-223" value="" style="endArrow=classic;html=1;fontSize=36;fillColor=#FF4D00;" edge="1" parent="1">
                    <mxGeometry width="50" height="50" relative="1" as="geometry">
                        <mxPoint x="830" y="1110" as="sourcePoint"/>
                        <mxPoint x="2008" y="1310" as="targetPoint"/>
                    </mxGeometry>
                </mxCell>
                <mxCell id="if9nncSJGzfauzh8v_aQ-224" value="" style="endArrow=classic;html=1;fontSize=36;fillColor=#FF4D00;" edge="1" parent="1">
                    <mxGeometry width="50" height="50" relative="1" as="geometry">
                        <mxPoint x="780" y="1150" as="sourcePoint"/>
                        <mxPoint x="830" y="1110" as="targetPoint"/>
                    </mxGeometry>
                </mxCell>
                <mxCell id="if9nncSJGzfauzh8v_aQ-225" value="Bitcoin tracker:" style="text;strokeColor=none;fillColor=none;html=1;fontSize=24;fontStyle=1;verticalAlign=middle;align=center;" vertex="1" parent="1">
                    <mxGeometry x="390" y="980" width="100" height="40" as="geometry"/>
                </mxCell>
                <mxCell id="if9nncSJGzfauzh8v_aQ-228" value="Light" style="html=1;shadow=0;dashed=0;shape=mxgraph.bootstrap.rrect;rSize=5;strokeColor=none;strokeWidth=1;fillColor=#F8F9FA;fontColor=#000000;whiteSpace=wrap;align=center;verticalAlign=middle;spacingLeft=0;fontStyle=0;fontSize=16;spacing=5;" vertex="1" parent="1">
                    <mxGeometry x="20" y="20" width="60" height="40" as="geometry"/>
                </mxCell>
                <mxCell id="if9nncSJGzfauzh8v_aQ-230" value="Dark" style="html=1;shadow=0;dashed=0;shape=mxgraph.bootstrap.rrect;rSize=5;strokeColor=none;strokeWidth=1;fillColor=#343A40;fontColor=#ffffff;whiteSpace=wrap;align=center;verticalAlign=middle;spacingLeft=0;fontStyle=0;fontSize=16;spacing=5;" vertex="1" parent="1">
                    <mxGeometry x="90" y="20" width="60" height="40" as="geometry"/>
                </mxCell>
            </root>
        </mxGraphModel>
    </diagram>
    <diagram id="OuRvFOysmlJ3xLbIPpY6" name="Page-2">
        <mxGraphModel dx="1118" dy="828" grid="1" gridSize="10" guides="1" tooltips="1" connect="1" arrows="1" fold="1" page="1" pageScale="1" pageWidth="850" pageHeight="1100" math="0" shadow="0">
            <root>
                <mxCell id="viLDyXxeUy7JL8pDtmsq-0"/>
                <mxCell id="viLDyXxeUy7JL8pDtmsq-1" parent="viLDyXxeUy7JL8pDtmsq-0"/>
                <mxCell id="viLDyXxeUy7JL8pDtmsq-2" value="" style="rounded=0;whiteSpace=wrap;html=1;" vertex="1" parent="viLDyXxeUy7JL8pDtmsq-1">
                    <mxGeometry x="10" y="10" width="830" height="220" as="geometry"/>
                </mxCell>
                <mxCell id="viLDyXxeUy7JL8pDtmsq-3" value="&lt;font style=&quot;font-size: 72px&quot;&gt;Fork the Food&lt;/font&gt;" style="text;strokeColor=none;fillColor=none;html=1;fontSize=24;fontStyle=1;verticalAlign=middle;align=center;" vertex="1" parent="viLDyXxeUy7JL8pDtmsq-1">
                    <mxGeometry x="250" y="50" width="350" height="140" as="geometry"/>
                </mxCell>
                <mxCell id="viLDyXxeUy7JL8pDtmsq-4" value="" style="rounded=0;whiteSpace=wrap;html=1;fontSize=72;" vertex="1" parent="viLDyXxeUy7JL8pDtmsq-1">
                    <mxGeometry x="10" y="250" width="420" height="490" as="geometry"/>
                </mxCell>
                <mxCell id="viLDyXxeUy7JL8pDtmsq-7" value="" style="rounded=1;whiteSpace=wrap;html=1;fontSize=48;" vertex="1" parent="viLDyXxeUy7JL8pDtmsq-1">
                    <mxGeometry x="450" y="250" width="380" height="60" as="geometry"/>
                </mxCell>
                <mxCell id="viLDyXxeUy7JL8pDtmsq-8" value="" style="rounded=1;whiteSpace=wrap;html=1;fontSize=48;" vertex="1" parent="viLDyXxeUy7JL8pDtmsq-1">
                    <mxGeometry x="450" y="330" width="380" height="60" as="geometry"/>
                </mxCell>
                <mxCell id="viLDyXxeUy7JL8pDtmsq-9" value="" style="rounded=1;whiteSpace=wrap;html=1;fontSize=48;" vertex="1" parent="viLDyXxeUy7JL8pDtmsq-1">
                    <mxGeometry x="450" y="410" width="380" height="60" as="geometry"/>
                </mxCell>
                <mxCell id="viLDyXxeUy7JL8pDtmsq-10" value="" style="rounded=1;whiteSpace=wrap;html=1;fontSize=48;" vertex="1" parent="viLDyXxeUy7JL8pDtmsq-1">
                    <mxGeometry x="450" y="490" width="380" height="60" as="geometry"/>
                </mxCell>
                <mxCell id="viLDyXxeUy7JL8pDtmsq-11" value="" style="rounded=1;whiteSpace=wrap;html=1;fontSize=48;" vertex="1" parent="viLDyXxeUy7JL8pDtmsq-1">
                    <mxGeometry x="450" y="570" width="380" height="60" as="geometry"/>
                </mxCell>
                <mxCell id="viLDyXxeUy7JL8pDtmsq-12" value="" style="rounded=1;whiteSpace=wrap;html=1;fontSize=48;" vertex="1" parent="viLDyXxeUy7JL8pDtmsq-1">
                    <mxGeometry x="450" y="650" width="380" height="60" as="geometry"/>
                </mxCell>
                <mxCell id="viLDyXxeUy7JL8pDtmsq-13" value="" style="rounded=1;whiteSpace=wrap;html=1;fontSize=48;" vertex="1" parent="viLDyXxeUy7JL8pDtmsq-1">
                    <mxGeometry x="450" y="730" width="380" height="60" as="geometry"/>
                </mxCell>
                <mxCell id="viLDyXxeUy7JL8pDtmsq-14" value="" style="rounded=1;whiteSpace=wrap;html=1;fontSize=48;" vertex="1" parent="viLDyXxeUy7JL8pDtmsq-1">
                    <mxGeometry x="450" y="810" width="380" height="60" as="geometry"/>
                </mxCell>
                <mxCell id="viLDyXxeUy7JL8pDtmsq-15" value="Favorited Recipe" style="text;strokeColor=none;fillColor=none;html=1;fontSize=24;fontStyle=1;verticalAlign=middle;align=center;" vertex="1" parent="viLDyXxeUy7JL8pDtmsq-1">
                    <mxGeometry x="590" y="260" width="100" height="40" as="geometry"/>
                </mxCell>
                <mxCell id="viLDyXxeUy7JL8pDtmsq-16" value="Favorited Recipe" style="text;strokeColor=none;fillColor=none;html=1;fontSize=24;fontStyle=1;verticalAlign=middle;align=center;" vertex="1" parent="viLDyXxeUy7JL8pDtmsq-1">
                    <mxGeometry x="590" y="340" width="100" height="40" as="geometry"/>
                </mxCell>
                <mxCell id="viLDyXxeUy7JL8pDtmsq-17" value="Favorited Recipe" style="text;strokeColor=none;fillColor=none;html=1;fontSize=24;fontStyle=1;verticalAlign=middle;align=center;" vertex="1" parent="viLDyXxeUy7JL8pDtmsq-1">
                    <mxGeometry x="590" y="420" width="100" height="40" as="geometry"/>
                </mxCell>
                <mxCell id="viLDyXxeUy7JL8pDtmsq-18" value="Favorited Recipe" style="text;strokeColor=none;fillColor=none;html=1;fontSize=24;fontStyle=1;verticalAlign=middle;align=center;" vertex="1" parent="viLDyXxeUy7JL8pDtmsq-1">
                    <mxGeometry x="590" y="500" width="100" height="40" as="geometry"/>
                </mxCell>
                <mxCell id="viLDyXxeUy7JL8pDtmsq-19" value="Favorited Recipe" style="text;strokeColor=none;fillColor=none;html=1;fontSize=24;fontStyle=1;verticalAlign=middle;align=center;" vertex="1" parent="viLDyXxeUy7JL8pDtmsq-1">
                    <mxGeometry x="590" y="580" width="100" height="40" as="geometry"/>
                </mxCell>
                <mxCell id="viLDyXxeUy7JL8pDtmsq-20" value="Favorited Recipe" style="text;strokeColor=none;fillColor=none;html=1;fontSize=24;fontStyle=1;verticalAlign=middle;align=center;" vertex="1" parent="viLDyXxeUy7JL8pDtmsq-1">
                    <mxGeometry x="590" y="660" width="100" height="40" as="geometry"/>
                </mxCell>
                <mxCell id="viLDyXxeUy7JL8pDtmsq-21" value="Favorited Recipe" style="text;strokeColor=none;fillColor=none;html=1;fontSize=24;fontStyle=1;verticalAlign=middle;align=center;" vertex="1" parent="viLDyXxeUy7JL8pDtmsq-1">
                    <mxGeometry x="590" y="740" width="100" height="40" as="geometry"/>
                </mxCell>
                <mxCell id="viLDyXxeUy7JL8pDtmsq-22" value="Favorited Recipe" style="text;strokeColor=none;fillColor=none;html=1;fontSize=24;fontStyle=1;verticalAlign=middle;align=center;" vertex="1" parent="viLDyXxeUy7JL8pDtmsq-1">
                    <mxGeometry x="590" y="820" width="100" height="40" as="geometry"/>
                </mxCell>
                <mxCell id="viLDyXxeUy7JL8pDtmsq-30" value="&lt;h1&gt;Generate another?&lt;/h1&gt;" style="html=1;shadow=0;dashed=0;shape=mxgraph.bootstrap.rrect;rSize=5;strokeColor=none;strokeWidth=1;fillColor=#1CA5B8;fontColor=#FFFFFF;whiteSpace=wrap;align=center;verticalAlign=middle;spacingLeft=0;fontStyle=0;fontSize=16;spacing=5;" vertex="1" parent="viLDyXxeUy7JL8pDtmsq-1">
                    <mxGeometry x="10" y="750" width="420" height="120" as="geometry"/>
                </mxCell>
                <mxCell id="viLDyXxeUy7JL8pDtmsq-35" value="Generated Recipe:" style="text;strokeColor=none;fillColor=none;html=1;fontSize=24;fontStyle=1;verticalAlign=middle;align=center;" vertex="1" parent="viLDyXxeUy7JL8pDtmsq-1">
                    <mxGeometry x="170" y="270" width="100" height="40" as="geometry"/>
                </mxCell>
                <mxCell id="viLDyXxeUy7JL8pDtmsq-38" value="&lt;span style=&quot;font-size: 20px&quot;&gt;&lt;b&gt;Ingredients used:&lt;br&gt;&lt;/b&gt;&lt;/span&gt;- Ingredient&lt;br&gt;- Ingredient&lt;br&gt;- Ingredient&lt;br style=&quot;font-size: 14px&quot;&gt;&lt;br style=&quot;font-size: 14px&quot;&gt;Description of recipe" style="html=1;shadow=0;dashed=0;shape=mxgraph.bootstrap.rrect;rSize=5;strokeColor=#5B646A;html=1;whiteSpace=wrap;fillColor=#6C767D;fontColor=#ffffff;verticalAlign=bottom;align=left;spacing=20;spacingBottom=0;fontSize=14;" vertex="1" parent="viLDyXxeUy7JL8pDtmsq-1">
                    <mxGeometry x="30" y="310" width="380" height="190" as="geometry"/>
                </mxCell>
                <mxCell id="viLDyXxeUy7JL8pDtmsq-39" value="Recipe Name" style="html=1;shadow=0;dashed=0;shape=mxgraph.bootstrap.topButton;rSize=5;perimeter=none;whiteSpace=wrap;fillColor=#697279;strokeColor=#5B646A;fontColor=#ffffff;resizeWidth=1;fontSize=18;align=left;spacing=20;" vertex="1" parent="viLDyXxeUy7JL8pDtmsq-38">
                    <mxGeometry width="380" height="50" relative="1" as="geometry"/>
                </mxCell>
                <mxCell id="viLDyXxeUy7JL8pDtmsq-40" value="&lt;span style=&quot;font-size: 20px&quot;&gt;&lt;b&gt;Embedded Youtube video&lt;/b&gt;&lt;/span&gt;" style="html=1;shadow=0;dashed=0;shape=mxgraph.bootstrap.rrect;rSize=5;strokeColor=#DB2843;html=1;whiteSpace=wrap;fillColor=#ffffff;fontColor=#DB2843;verticalAlign=bottom;align=center;spacing=20;spacingBottom=0;fontSize=14;" vertex="1" parent="viLDyXxeUy7JL8pDtmsq-1">
                    <mxGeometry x="35" y="520" width="370" height="200" as="geometry"/>
                </mxCell>
                <mxCell id="viLDyXxeUy7JL8pDtmsq-41" value="Youtube Video name" style="html=1;shadow=0;dashed=0;shape=mxgraph.bootstrap.topButton;rSize=5;perimeter=none;whiteSpace=wrap;fillColor=#F7F7F7;strokeColor=#DB2843;fontColor=#6C767D;resizeWidth=1;fontSize=18;align=center;spacing=20;" vertex="1" parent="viLDyXxeUy7JL8pDtmsq-40">
                    <mxGeometry width="370" height="50" relative="1" as="geometry"/>
                </mxCell>
            </root>
        </mxGraphModel>
    </diagram>
</mxfile>